<svg version="1.2" xmlns="http://www.w3.org/2000/svg" viewBox="0 0 4096 4096" width="4096" height="4096">
	<style>
		.s0 { fill: #ff8000 } 
		.s1 { fill: #40bcf4 } 
		.s2 { fill: #00e054 } 
		.s3 { fill: #ffffff } 
	</style>
	<path id="Forme 2 copy 3" fill-rule="evenodd" class="s0" d="m452.08 1293.69l678.89-145.27c163.64-35.01 324.68 69.26 359.69 232.9l282.79 1321.57c35.02 163.64-69.25 324.68-232.89 359.69l-678.9 145.27c-163.64 35.02-324.68-69.25-359.69-232.89l-282.79-1321.58c-35.01-163.63 69.26-324.67 232.9-359.69z"/>
	<path id="Forme 2 copy 4" fill-rule="evenodd" class="s1" d="m2964.99 1139.1l679.01 144.72c163.66 34.89 268.06 195.84 233.17 359.51l-281.73 1321.79c-34.88 163.66-195.84 268.06-359.51 233.18l-679-144.73c-163.67-34.88-268.07-195.84-233.18-359.51l281.73-1321.78c34.89-163.67 195.84-268.07 359.51-233.18z"/>
	<path id="Forme 2 copy 5" fill-rule="evenodd" class="s2" d="m1717.76 892.06h694.26c167.34 0 303 135.66 303 303v1351.48c0 167.34-135.66 303-303 303h-694.26c-167.34 0-303-135.66-303-303v-1351.48c0-167.34 135.66-303 303-303z"/>
	<path id="Forme 2 copy 2" fill-rule="evenodd" class="s3" d="m2323.75 2694.06l281.73-1321.78c15.43-72.36 55.49-133.14 109.54-175.41v1349.67c0 167.34-135.66 303-303 303h-80.58c-15.61-48.65-19.11-101.92-7.69-155.48z"/>
	<path id="Forme 2" fill-rule="evenodd" class="s3" d="m1490.66 1381.32l282.79 1321.57c10.77 50.33 8.36 100.41-4.89 146.65h-50.8c-167.34 0-303-135.66-303-303v-1309.82c36.88 38.99 63.85 88.28 75.9 144.6z"/>
</svg>